<svg width="22" height="16" viewBox="0 0 22 16" fill="none" xmlns="http://www.w3.org/2000/svg">
<g clip-path="url(#clip0_405_103)">
<path fill-rule="evenodd" clip-rule="evenodd" d="M0.667969 0H22.0013V16H0.667969V0Z" fill="#F7FCFF"/>
<path fill-rule="evenodd" clip-rule="evenodd" d="M0.667969 9.778V11.1113H22.0013V9.778H0.667969ZM0.667969 12.222V13.5553H22.0013V12.222H0.667969ZM0.667969 4.88867V6.222H22.0013V4.88867H0.667969ZM0.667969 14.6667V16H22.0013V14.6667H0.667969ZM0.667969 7.33333V8.66667H22.0013V7.33333H0.667969ZM0.667969 0V1.33333H22.0013V0H0.667969ZM0.667969 2.44467V3.778H22.0013V2.44467H0.667969Z" fill="#E31D1C"/>
<path d="M0.667969 0H14.0013V8.66667H0.667969V0Z" fill="#2E42A5"/>
<path fill-rule="evenodd" clip-rule="evenodd" d="M1.81707 1.95927L1.33307 2.2986L1.49641 1.6946L1.06641 1.31194H1.62841L1.81641 0.818604L2.03707 1.31194H2.51574L2.13974 1.6946L2.28507 2.2986L1.81707 1.95927ZM4.48374 1.95927L3.99974 2.2986L4.16307 1.6946L3.73374 1.31194H4.29507L4.48307 0.818604L4.70374 1.31194H5.1824L4.80641 1.6946L4.95174 2.2986L4.48374 1.95927ZM6.66641 2.2986L7.1504 1.9586L7.6184 2.2986L7.47307 1.6946L7.84907 1.31194H7.37041L7.14974 0.818604L6.96174 1.31194H6.40041L6.82974 1.6946L6.66641 2.2986ZM9.81707 1.9586L9.33307 2.2986L9.4964 1.6946L9.06707 1.31194H9.6284L9.8164 0.818604L10.0371 1.31194H10.5157L10.1397 1.6946L10.2851 2.2986L9.81707 1.9586ZM1.33307 4.96594L1.81707 4.62594L2.28507 4.96594L2.13974 4.36194L2.51574 3.97927H2.03707L1.81641 3.48594L1.62841 3.97927H1.06641L1.49641 4.36194L1.33307 4.96594ZM4.48374 4.62594L3.99974 4.96594L4.16307 4.36194L3.73374 3.97927H4.29507L4.48307 3.48594L4.70374 3.97927H5.1824L4.80641 4.36194L4.95174 4.96594L4.48374 4.62594ZM6.66641 4.96594L7.1504 4.62594L7.6184 4.96594L7.47307 4.36194L7.84907 3.97927H7.37041L7.14974 3.48594L6.96174 3.97927H6.40041L6.82974 4.36194L6.66641 4.96594ZM9.81707 4.62594L9.33307 4.96594L9.4964 4.36194L9.06707 3.97927H9.6284L9.8164 3.48594L10.0371 3.97927H10.5157L10.1397 4.36194L10.2851 4.96594L9.81707 4.62594ZM1.33307 7.6326L1.81707 7.2926L2.28507 7.6326L2.13974 7.0286L2.51574 6.64594H2.03707L1.81641 6.1526L1.62841 6.64594H1.06641L1.49641 7.0286L1.33307 7.6326ZM4.48374 7.2926L3.99974 7.6326L4.16307 7.0286L3.73374 6.64594H4.29507L4.48307 6.1526L4.70374 6.64594H5.1824L4.80641 7.0286L4.95174 7.6326L4.48374 7.2926ZM6.66641 7.6326L7.1504 7.2926L7.6184 7.6326L7.47307 7.0286L7.84907 6.64594H7.37041L7.14974 6.1526L6.96174 6.64594H6.40041L6.82974 7.0286L6.66641 7.6326ZM9.81707 7.2926L9.33307 7.6326L9.4964 7.0286L9.06707 6.64594H9.6284L9.8164 6.1526L10.0371 6.64594H10.5157L10.1397 7.0286L10.2851 7.6326L9.81707 7.2926ZM11.9997 2.29927L12.4837 1.95927L12.9517 2.29927L12.8064 1.69527L13.1824 1.3126H12.7037L12.4831 0.81927L12.2951 1.3126H11.7331L12.1631 1.69527L11.9997 2.29927ZM12.4837 4.62594L11.9997 4.96594L12.1631 4.36194L11.7331 3.97927H12.2951L12.4831 3.48594L12.7037 3.97927H13.1824L12.8064 4.36194L12.9517 4.96594L12.4837 4.62594ZM11.9997 7.6326L12.4837 7.2926L12.9517 7.6326L12.8064 7.0286L13.1824 6.64594H12.7037L12.4831 6.1526L12.2951 6.64594H11.7331L12.1631 7.0286L11.9997 7.6326ZM3.15041 3.29194L2.66641 3.63194L2.82974 3.02794L2.39974 2.64527H2.96174L3.14974 2.15194L3.37041 2.64527H3.84907L3.47307 3.02794L3.61841 3.63194L3.15041 3.29194ZM5.33307 3.63194L5.81707 3.29194L6.28507 3.63194L6.13974 3.02794L6.51574 2.64527H6.03707L5.81641 2.15194L5.62841 2.64527H5.06641L5.49641 3.02794L5.33307 3.63194ZM8.48374 3.29194L7.99974 3.63194L8.16307 3.02794L7.73374 2.64527H8.29507L8.48307 2.15194L8.70374 2.64527H9.1824L8.8064 3.02794L8.95174 3.63194L8.48374 3.29194ZM2.66641 6.2986L3.15041 5.9586L3.61841 6.2986L3.47307 5.6946L3.84907 5.31194H3.37041L3.14974 4.8186L2.96174 5.31194H2.39974L2.82974 5.6946L2.66641 6.2986ZM5.81707 5.9586L5.33307 6.2986L5.49641 5.6946L5.06707 5.31194H5.62841L5.81641 4.8186L6.03707 5.31194H6.51574L6.13974 5.6946L6.28507 6.2986L5.81707 5.9586ZM7.99974 6.2986L8.48374 5.9586L8.95174 6.2986L8.8064 5.6946L9.1824 5.31194H8.70374L8.48307 4.8186L8.29507 5.31194H7.73374L8.16307 5.6946L7.99974 6.2986ZM11.1504 3.29194L10.6664 3.63194L10.8297 3.02794L10.4004 2.64527H10.9617L11.1497 2.15194L11.3704 2.64527H11.8491L11.4731 3.02794L11.6184 3.63194L11.1504 3.29194ZM10.6664 6.2986L11.1504 5.9586L11.6184 6.2986L11.4731 5.6946L11.8491 5.31194H11.3704L11.1497 4.8186L10.9617 5.31194H10.4004L10.8297 5.6946L10.6664 6.2986Z" fill="#F7FCFF"/>
</g>
<defs>
<clipPath id="clip0_405_103">
<rect width="21.3333" height="16" fill="white" transform="translate(0.667969)"/>
</clipPath>
</defs>
</svg>
